# xmcd CD database file
#
# Track frame offsets:
#	150
#	16198
#	37485
#	62657
#	79460
#	91644
#	111913
#	124817
#	144061
#	158970
#	174191
#	184938
#	208209
#	220272
#	240863
#	258449
#
# Disc length: 3894 seconds
#
# Revision: 0
# Processed by: cddbd v1.5.1PL2 Copyright (c) Steve Scherf et al.
# Submitted via: CDex 1.51
#
DISCID=da0f3410
DTITLE=Sophia New Swing Orchestra - Concert 1972
DYEAR=1900
DGENRE=Jazz
TTITLE0=Basie straight ahead
TTITLE1=The Groove Marchant
TTITLE2=Big Dipper
TTITLE3=It's oh so nice
TTITLE4=Lonely Street
TTITLE5=Four Five Six
TTITLE6=Nice'n easy
TTITLE7=Love for Sale
TTITLE8=It's about Time
TTITLE9=Four Brothers
TTITLE10=Boys and Girls together
TTITLE11=Joe Tex
TTITLE12=My Cherry amour
TTITLE13=UNknown
TTITLE14=The say it's wonderful
TTITLE15=UNknown
EXTD=
EXTT0=
EXTT1=
EXTT2=
EXTT3=
EXTT4=
EXTT5=
EXTT6=
EXTT7=
EXTT8=
EXTT9=
EXTT10=
EXTT11=
EXTT12=
EXTT13=
EXTT14=
EXTT15=
PLAYORDER=
